Coordinates
version=1
nRows=9
nColumns=36
inDegrees=yes

Units are S.I. units (second, meters, Newtons, ...)
If the header above contains a line with 'inDegrees', this indicates whether rotational values are in degrees (yes) or radians (no).

endheader
time	pelvis_tilt	pelvis_list	pelvis_rotation	pelvis_tx	pelvis_ty	pelvis_tz	hip_flexion_r	hip_adduction_r	hip_rotation_r	knee_angle_r	knee_angle_r_beta	ankle_angle_r	subtalar_angle_r	mtp_angle_r	hip_flexion_l	hip_adduction_l	hip_rotation_l	knee_angle_l	knee_angle_l_beta	ankle_angle_l	subtalar_angle_l	mtp_angle_l	lumbar_extension	lumbar_bending	lumbar_rotation	arm_flex_r	arm_add_r	arm_rot_r	elbow_flex_r	pro_sup_r	arm_flex_l	arm_add_l	arm_rot_l	elbow_flex_l	pro_sup_l
      2.20000000	      8.77239523	     -7.57432497	      7.76007880	      0.76783963	      0.87061457	     -0.03860761	     47.03911860	      0.78567823	      5.26671381	     19.86585773	      0.34672463	    -15.99568005	     -8.95253159	     -7.49999966	     22.51211412	      1.30458300	      1.99763275	     48.33700388	      0.84363987	     15.98640326	    -15.74525482	     -7.49999966	    -38.28648276	      3.63916956	      4.00415558	     65.20496801	      7.60653486	     70.44718157	    119.41930842	     90.44447944	     79.28623750	     11.87134217	     73.56462496	    122.15126505	     71.57762318
      2.21666670	      9.32421222	     -7.93495655	      8.24039470	      0.77195907	      0.87604704	     -0.03529493	     46.79671452	      0.77933075	      4.24767960	     19.39593593	      0.33852294	    -15.91417748	     -9.35122225	     -7.49999966	     20.57971086	      0.63509232	      2.49158450	     46.20990935	      0.80651507	     15.33181692	    -14.78376402	     -7.49999966	    -37.26949484	      4.36414362	      4.25058853	     65.10088329	      7.43904191	     69.84060510	    119.41537730	     90.47052419	     79.04717060	     12.52191687	     73.33195008	    122.79477836	     71.59336973
      2.23333330	      9.99073276	     -8.04596501	      8.45166828	      0.77712335	      0.89044829	     -0.03430042	     45.49773379	      0.78155409	      3.13009469	     17.70837193	      0.30906940	    -16.45574749	     -9.50843804	     -7.49999967	     17.46314171	     -0.11341901	      2.62244522	     42.55738525	      0.74276649	     14.47078435	    -13.43972011	     -7.49999967	    -36.58196443	      4.53176660	      3.89431492	     64.39347438	      7.78117520	     69.63373078	    119.09293705	     89.53891767	     78.48997462	     11.89501233	     73.43204565	    123.40779958	     71.09127506
      2.25000000	     10.20722800	     -8.66418042	      8.93560118	      0.77707631	      0.89821923	     -0.04095014	     44.83222564	      0.79995787	      2.05642995	     16.44253279	      0.28697633	    -16.67607855	     -9.25996185	     -7.49999967	     15.94102910	     -0.93453552	      2.55072425	     40.16682500	      0.70104335	     13.25845908	    -12.36731114	     -7.49999967	    -35.56530598	      5.50693665	      3.46601895	     63.18402794	      7.70367109	     70.55383320	    119.52488540	     89.63031719	     78.51547738	     11.55200926	     73.31789962	    123.30924300	     71.03851253
      2.26666670	     11.28504280	     -9.61199383	      9.39727787	      0.79456267	      0.90768548	     -0.04722368	     42.65603974	      1.11853756	      0.62009919	     15.38222472	      0.26847047	    -16.09901503	     -8.18355157	     -7.49999968	     12.25419106	     -2.29518919	      2.67770430	     36.91532980	      0.64429405	     13.05018877	    -11.11484639	     -7.49999968	    -34.56020228	      7.03489560	      3.08843704	     62.24913134	      7.34096182	     71.17010789	    119.53495347	     89.89998787	     76.84630392	     11.54228981	     73.43366742	    123.65639017	     70.90009437
      2.28333330	     11.34413743	    -10.66583809	      9.43120369	      0.79300669	      0.91466787	     -0.04731846	     42.73315565	      1.57542293	     -0.88854100	     15.25665802	      0.26627892	    -15.81745913	     -7.84594376	     -7.49999968	      9.51506813	     -3.34842709	      2.83286569	     32.97093933	      0.57545145	     12.72621699	     -9.91433141	     -7.49999968	    -32.90541818	      8.20788562	      2.76855703	     61.21247242	      7.49872200	     71.70442267	    119.91744830	     89.92605013	     75.45578031	     11.86094966	     74.06123241	    124.09361366	     70.83057723
      2.30000000	     11.58945381	    -11.61277147	      9.60524766	      0.80113312	      0.92308014	     -0.04751554	     42.55504085	      1.91928527	     -2.35865593	     14.87280507	      0.25957942	    -15.60444508	     -7.59948853	     -7.49999968	      6.53381595	     -4.57235468	      2.74386825	     28.60415259	      0.49923664	     11.77132681	     -9.41594417	     -7.49999968	    -31.16592057	      9.44489436	      2.43777780	     59.61237623	      7.31447638	     72.42007985	    120.07535035	     89.97358268	     74.00020227	     11.51478503	     74.21876070	    124.56483722	     70.72896334
      2.31666670	     11.58367216	    -12.61563454	      9.89315965	      0.80039728	      0.93049222	     -0.05360769	     42.68936715	      2.02148338	     -3.51277754	     14.30602239	      0.24968719	    -16.17713673	     -6.69296251	     -7.49999969	      4.13366719	     -5.48444487	      3.18922660	     24.31972691	      0.42445931	     10.38639279	     -8.83500648	     -7.49999969	    -29.80906413	     11.13962782	      2.30031364	     58.76186776	      6.99568982	     73.15313247	    120.07631694	     90.04195820	     72.75619639	     11.94503964	     74.36017068	    125.48589254	     70.62168138
      2.33333330	     11.70663676	    -13.42396068	      9.94382959	      0.80783907	      0.93472498	     -0.04735029	     43.09519493	      2.68582529	     -4.13960691	     14.36373340	      0.25069444	    -15.27944722	     -5.87820350	     -7.49999969	      1.63805584	     -6.56124534	      3.40764452	     20.24819863	      0.35339773	      9.25402558	     -9.24287378	     -7.49999969	    -28.75045200	     12.23967376	      2.37886379	     58.42470778	      7.28191742	     71.93145321	    118.92985627	     90.02414455	     71.69322060	     12.00103525	     73.77186167	    126.58929288	     70.28455480
